<svg xmlns="http://www.w3.org/2000/svg" viewBox="20.00048828125 176.03325434788917 534.9990007902513 222.93370492726854"> <g transform="rotate(0 168.53661238530898 287.50010681152344)"><svg xmlns="http://www.w3.org/2000/svg" xmlns:xlink="http://www.w3.org/1999/xlink" id="Layer_2" viewBox="0 0 150.37998962402344 79.40000915527344" height="82.93370492726852" width="157.07224820811797" y="246.03325434788917" x="90.00048828125" preserveAspectRatio="xMinYMin" style="overflow: visible;"><linearGradient id="Gradient_59" x1="0" y1="39.7" x2="150.38" y2="39.7" gradientUnits="userSpaceOnUse" style=""><stop offset="0" stop-color="#80d1e8"></stop><stop offset=".5" stop-color="#4dbceb"></stop><stop offset="1" stop-color="#4980c1"></stop></linearGradient><path id="Layer_4" class="cls-1" d="m148.43,37.46c-1.33-1.53-33.12-37.46-73.24-37.46S3.28,35.93,1.95,37.46l-1.95,2.23,1.95,2.23c.97,1.11,18.02,20.37,42.65,30.83v-7.52c-17.3-8.06-30.5-20.5-35.42-25.54C16.72,31.95,43.67,6.8,75.19,6.8s58.46,25.17,66.02,32.9c-7.55,7.74-34.5,32.9-66.02,32.9-5.61,0-11.06-.81-16.3-2.17v-16.13c4.18,4.17,9.94,6.75,16.3,6.75,12.74,0,23.1-10.36,23.1-23.1s-10.37-23.1-23.1-23.1-23.1,10.36-23.1,23.1c0,0-.06,37.59-.04,37.6,7.25,2.36,15.02,3.85,23.14,3.85,40.12,0,71.91-35.94,73.24-37.47l1.95-2.23-1.95-2.23Zm-73.24-15.81c8.99,0,16.3,7.31,16.3,16.3s-7.32,16.3-16.3,16.3-16.3-7.31-16.3-16.3,7.31-16.3,16.3-16.3Z" style="fill: url(#Gradient_59);"></path></svg></g> <g transform="rotate(0 374.3294832731615 287.5050517209317)"><svg xmlns="http://www.w3.org/2000/svg" y="275.06005107243317" viewBox="2.4000000953674316 11.899999618530273 221.3400115966797 24.89000129699707" x="263.65947747482164" height="24.89000129699707" width="221.3400115966797" style="overflow: visible;"><g fill="#58595b" fill-opacity="1" style=""><path d="M20.12 19.77Q20.12 21.72 19.19 23.42Q18.27 25.13 16.30 26.17Q14.34 27.21 11.35 27.21L11.35 27.21L7.27 27.21L7.27 36.54L2.40 36.54L2.40 12.25L11.35 12.25Q14.16 12.25 16.15 13.22Q18.13 14.20 19.12 15.90Q20.12 17.61 20.12 19.77L20.12 19.77ZM11.14 23.28Q13.15 23.28 14.13 22.36Q15.10 21.44 15.10 19.77L15.10 19.77Q15.10 16.22 11.14 16.22L11.14 16.22L7.27 16.22L7.27 23.28L11.14 23.28ZM42.42 36.54L36.79 36.54L31.43 27.08L29.13 27.08L29.13 36.54L24.26 36.54L24.26 12.25L33.37 12.25Q36.19 12.25 38.18 13.24Q40.16 14.23 41.15 15.92Q42.14 17.61 42.14 19.70L42.14 19.70Q42.14 22.10 40.75 24.03Q39.36 25.96 36.61 26.69L36.61 26.69L42.42 36.54ZM29.13 16.29L29.13 23.42L33.20 23.42Q35.18 23.42 36.16 22.46Q37.13 21.51 37.13 19.80L37.13 19.80Q37.13 18.13 36.16 17.21Q35.18 16.29 33.20 16.29L33.20 16.29L29.13 16.29ZM58.54 36.79Q55.13 36.79 52.27 35.18Q49.42 33.58 47.75 30.75Q46.08 27.91 46.08 24.33L46.08 24.33Q46.08 20.78 47.75 17.94Q49.42 15.10 52.27 13.50Q55.13 11.90 58.54 11.90L58.54 11.90Q61.98 11.90 64.82 13.50Q67.65 15.10 69.31 17.94Q70.96 20.78 70.96 24.33L70.96 24.33Q70.96 27.91 69.31 30.75Q67.65 33.58 64.80 35.18Q61.95 36.79 58.54 36.79L58.54 36.79ZM58.54 32.43Q60.73 32.43 62.40 31.44Q64.07 30.45 65.01 28.61Q65.95 26.76 65.95 24.33L65.95 24.33Q65.95 21.89 65.01 20.06Q64.07 18.24 62.40 17.26Q60.73 16.29 58.54 16.29L58.54 16.29Q56.34 16.29 54.66 17.26Q52.97 18.24 52.03 20.06Q51.09 21.89 51.09 24.33L51.09 24.33Q51.09 26.76 52.03 28.61Q52.97 30.45 54.66 31.44Q56.34 32.43 58.54 32.43L58.54 32.43ZM91.91 12.25L97.10 12.25L88.19 36.54L82.27 36.54L73.36 12.25L78.58 12.25L85.26 31.56L91.91 12.25ZM100.72 12.25L105.59 12.25L105.59 36.54L100.72 36.54L100.72 12.25ZM119.58 12.25Q123.41 12.25 126.31 13.75Q129.22 15.24 130.80 18.01Q132.38 20.78 132.38 24.43L132.38 24.43Q132.38 28.08 130.80 30.82Q129.22 33.55 126.31 35.04Q123.41 36.54 119.58 36.54L119.58 36.54L111.09 36.54L111.09 12.25L119.58 12.25ZM119.40 32.40Q123.23 32.40 125.32 30.31Q127.41 28.22 127.41 24.43L127.41 24.43Q127.41 20.64 125.32 18.50Q123.23 16.36 119.40 16.36L119.40 16.36L115.96 16.36L115.96 32.40L119.40 32.40ZM150.83 16.18L141.61 16.18L141.61 22.27L149.79 22.27L149.79 26.14L141.61 26.14L141.61 32.57L150.83 32.57L150.83 36.54L136.73 36.54L136.73 12.22L150.83 12.22L150.83 16.18ZM176.72 12.22L176.72 36.54L171.85 36.54L160.82 19.87L160.82 36.54L155.94 36.54L155.94 12.22L160.82 12.22L171.85 28.92L171.85 12.22L176.72 12.22ZM181.04 24.36Q181.04 20.78 182.66 17.94Q184.27 15.10 187.07 13.52Q189.88 11.94 193.36 11.94L193.36 11.94Q197.43 11.94 200.49 14.02Q203.55 16.11 204.77 19.80L204.77 19.80L199.17 19.80Q198.33 18.06 196.82 17.19Q195.31 16.32 193.32 16.32L193.32 16.32Q191.20 16.32 189.55 17.31Q187.89 18.31 186.97 20.12Q186.05 21.92 186.05 24.36L186.05 24.36Q186.05 26.76 186.97 28.59Q187.89 30.42 189.55 31.41Q191.20 32.40 193.32 32.40L193.32 32.40Q195.31 32.40 196.82 31.51Q198.33 30.63 199.17 28.89L199.17 28.89L204.77 28.89Q203.55 32.61 200.51 34.68Q197.46 36.75 193.36 36.75L193.36 36.75Q189.88 36.75 187.07 35.17Q184.27 33.58 182.66 30.76Q181.04 27.95 181.04 24.36L181.04 24.36ZM223.74 16.18L214.52 16.18L214.52 22.27L222.69 22.27L222.69 26.14L214.52 26.14L214.52 32.57L223.74 32.57L223.74 36.54L209.64 36.54L209.64 12.22L223.74 12.22L223.74 16.18Z" transform="translate(0, 0)"></path></g></svg></g></svg>